<svg width="24" height="24" viewBox="0 0 24 24" fill="none" xmlns="http://www.w3.org/2000/svg">
<path d="M23.4999 11.5C23.7799 11.5 23.9999 11.72 23.9999 12C23.9999 12.28 23.7799 12.5 23.4999 12.5H22.9999V11.5H23.4999Z" fill="white"/>
<path d="M12.4999 11.5H22.9999V12.5H12.4999V11.5Z" fill="white"/>
<path d="M21.5 24H12C12.28 24 12.5 23.78 12.5 23.5V23H21.5C22.33 23 23 22.33 23 21.5V12.5H23.5C23.78 12.5 24 12.28 24 12V21.5C24 22.88 22.88 24 21.5 24Z" fill="white"/>
<path d="M24 2.5V12C24 11.72 23.78 11.5 23.5 11.5H23V2.5C23 1.67 22.33 1 21.5 1H12.5V0.5C12.5 0.22 12.28 0 12 0H21.5C22.88 0 24 1.12 24 2.5Z" fill="white"/>
<path d="M19.9999 6C20.2799 6 20.4999 6.22 20.4999 6.5C20.4999 6.78 20.2799 7 19.9999 7H15.9999C15.7199 7 15.4999 6.78 15.4999 6.5C15.4999 6.22 15.7199 6 15.9999 6H19.9999Z" fill="white"/>
<path d="M19.9999 16C20.2799 16 20.4999 16.22 20.4999 16.5C20.4999 16.78 20.2799 17 19.9999 17H15.9999C15.7199 17 15.4999 16.78 15.4999 16.5C15.4999 16.22 15.7199 16 15.9999 16H19.9999Z" fill="white"/>
<path d="M19.9999 19C20.2799 19 20.4999 19.22 20.4999 19.5C20.4999 19.78 20.2799 20 19.9999 20H15.9999C15.7199 20 15.4999 19.78 15.4999 19.5C15.4999 19.22 15.7199 19 15.9999 19H19.9999Z" fill="white"/>
<path d="M12.5001 23V23.5C12.5001 23.78 12.2801 24 12.0001 24C11.7201 24 11.5001 23.78 11.5001 23.5V23H12.5001Z" fill="white"/>
<path d="M11.5001 12.5H12.5001V23H11.5001V12.5Z" fill="white"/>
<path d="M11.5001 11.5H12.5001V12.5H11.5001V11.5Z" fill="white"/>
<path d="M11.5001 1H12.5001V11.5H11.5001V1Z" fill="white"/>
<path d="M12.5001 0.5V1H11.5001V0.5C11.5001 0.22 11.7201 0 12.0001 0C12.2801 0 12.5001 0.22 12.5001 0.5Z" fill="white"/>
<path d="M1.00006 11.5H11.5001V12.5H1.00006V11.5Z" fill="white"/>
<path d="M7.99994 6C8.27994 6 8.49994 6.22 8.49994 6.5C8.49994 6.78 8.27994 7 7.99994 7H6.49994V6H7.99994Z" fill="white"/>
<path d="M7.85 19.15C8.05 19.34 8.05 19.66 7.85 19.85C7.76 19.95 7.63 20 7.5 20C7.37 20 7.24 19.95 7.15 19.85L6 18.7L6.7 18L7.85 19.15Z" fill="white"/>
<path d="M7.15 16.15C7.34 15.95 7.66 15.95 7.85 16.15C8.05 16.34 8.05 16.66 7.85 16.85L6.7 18L6 17.3L7.15 16.15Z" fill="white"/>
<path d="M5.29712 17.999L5.99716 17.299L6.69719 17.999L5.99716 18.6991L5.29712 17.999Z" fill="white"/>
<path d="M6.50006 7V8.5C6.50006 8.78 6.28006 9 6.00006 9C5.72006 9 5.50006 8.78 5.50006 8.5V7H6.50006Z" fill="white"/>
<path d="M5.50006 6H6.50006V7H5.50006V6Z" fill="white"/>
<path d="M6.50006 4.5V6H5.50006V4.5C5.50006 4.22 5.72006 4 6.00006 4C6.28006 4 6.50006 4.22 6.50006 4.5Z" fill="white"/>
<path d="M6.00006 17.3L5.30006 18L4.15006 16.85C3.95006 16.66 3.95006 16.34 4.15006 16.15C4.34006 15.95 4.66006 15.95 4.85006 16.15L6.00006 17.3Z" fill="white"/>
<path d="M5.49994 6V7H3.99994C3.71994 7 3.49994 6.78 3.49994 6.5C3.49994 6.22 3.71994 6 3.99994 6H5.49994Z" fill="white"/>
<path d="M4.85006 19.85C4.76006 19.95 4.63006 20 4.50006 20C4.37006 20 4.24006 19.95 4.15006 19.85C3.95006 19.66 3.95006 19.34 4.15006 19.15L5.30006 18L6.00006 18.7L4.85006 19.85Z" fill="white"/>
<path d="M1 11.5V12.5H0.5C0.22 12.5 0 12.28 0 12C0 11.72 0.22 11.5 0.5 11.5H1Z" fill="white"/>
<path d="M0 2.5C0 1.12 1.12 0 2.5 0H12C11.72 0 11.5 0.22 11.5 0.5V1H2.5C1.67 1 1 1.67 1 2.5V11.5H0.5C0.22 11.5 0 11.72 0 12V2.5Z" fill="white"/>
<path d="M1 21.5C1 22.33 1.67 23 2.5 23H11.5V23.5C11.5 23.78 11.72 24 12 24H2.5C1.12 24 0 22.88 0 21.5V12C0 12.28 0.22 12.5 0.5 12.5H1V21.5Z" fill="white"/>
</svg>
