<svg width="10" height="14" viewBox="0 0 10 14" fill="none" xmlns="http://www.w3.org/2000/svg">
<path d="M5 0.936523C3.68254 0.936455 2.41828 1.47633 1.48203 2.4388C0.545769 3.40128 0.0131746 4.70856 0 6.07653C0 9.633 4.40625 13.5918 4.59375 13.7606C4.70696 13.8611 4.85103 13.9164 5 13.9164C5.14897 13.9164 5.29304 13.8611 5.40625 13.7606C5.625 13.5918 10 9.633 10 6.07653C9.98682 4.70856 9.45423 3.40128 8.51797 2.4388C7.58172 1.47633 6.31746 0.936455 5 0.936523ZM5 8.07542C4.56735 8.07542 4.14442 7.9422 3.78469 7.69261C3.42496 7.44302 3.14458 7.08826 2.97901 6.67321C2.81345 6.25815 2.77013 5.80143 2.85453 5.36081C2.93894 4.92019 3.14728 4.51545 3.4532 4.19778C3.75913 3.88011 4.14891 3.66378 4.57324 3.57613C4.99757 3.48849 5.43741 3.53347 5.83712 3.70539C6.23683 3.87731 6.57847 4.16845 6.81884 4.54199C7.05921 4.91554 7.1875 5.3547 7.1875 5.80395C7.1875 6.40639 6.95703 6.98414 6.5468 7.41012C6.13656 7.83611 5.58016 8.07542 5 8.07542Z" fill="white"/>
</svg>
