<svg width="152" height="55" viewBox="0 0 152 55" fill="none" xmlns="http://www.w3.org/2000/svg">
<g clip-path="url(#clip0)">
<path d="M33.1669 49.0268L28.4565 53.7807C28.3027 53.9376 28.1196 54.0622 27.9178 54.1472C27.7159 54.2322 27.4994 54.276 27.2807 54.276C27.062 54.276 26.8455 54.2322 26.6437 54.1472C26.4418 54.0622 26.2587 53.9376 26.1049 53.7807L6.8319 34.3297C5.27018 34.2062 3.80581 33.5154 2.71041 32.3852C1.61501 31.255 0.962932 29.7622 0.875114 28.1837C0.787296 26.6053 1.2697 25.0482 2.23286 23.8014C3.19601 22.5545 4.57454 21.7025 6.11275 21.4035L26.1049 1.21936C26.2587 1.06246 26.4418 0.937907 26.6437 0.852899C26.8455 0.767891 27.062 0.724121 27.2807 0.724121C27.4994 0.724121 27.7159 0.767891 27.9178 0.852899C28.1196 0.937907 28.3027 1.06246 28.4565 1.21936L33.1669 5.97326C33.3224 6.12849 33.4458 6.3133 33.53 6.51699C33.6142 6.72068 33.6576 6.9392 33.6576 7.15992C33.6576 7.38063 33.6142 7.59916 33.53 7.80284C33.4458 8.00653 33.3224 8.19134 33.1669 8.34658L14.1959 27.5L33.1669 46.6535C33.3224 46.8088 33.4458 46.9936 33.53 47.1972C33.6142 47.4009 33.6576 47.6195 33.6576 47.8402C33.6576 48.0609 33.6142 48.2794 33.53 48.4831C33.4458 48.6868 33.3224 48.8716 33.1669 49.0268Z" fill="white"/>
<path d="M33.1669 49.0268L28.4565 53.7807C28.3027 53.9376 28.1196 54.0622 27.9178 54.1472C27.7159 54.2322 27.4994 54.276 27.2807 54.276C27.062 54.276 26.8455 54.2322 26.6437 54.1472C26.4418 54.0622 26.2587 53.9376 26.1049 53.7807V53.7807L6.8319 34.3297C5.27018 34.2062 3.80581 33.5154 2.71041 32.3852C1.61501 31.255 0.962932 29.7622 0.875114 28.1837C0.787296 26.6053 1.2697 25.0482 2.23286 23.8014C3.19601 22.5545 4.57454 21.7025 6.11275 21.4035L26.1049 1.21936C26.2587 1.06246 26.4418 0.937907 26.6437 0.852899C26.8455 0.767891 27.062 0.724121 27.2807 0.724121C27.4994 0.724121 27.7159 0.767891 27.9178 0.852899C28.1196 0.937907 28.3027 1.06246 28.4565 1.21936L33.1669 5.97326C33.3224 6.12849 33.4458 6.3133 33.53 6.51699C33.6142 6.72068 33.6576 6.9392 33.6576 7.15992C33.6576 7.38063 33.6142 7.59916 33.53 7.80284C33.4458 8.00653 33.3224 8.19134 33.1669 8.34658L14.1959 27.5L33.1669 46.6535C33.3224 46.8088 33.4458 46.9936 33.53 47.1972C33.6142 47.4009 33.6576 47.6195 33.6576 47.8402C33.6576 48.0609 33.6142 48.2794 33.53 48.4831C33.4458 48.6868 33.3224 48.8716 33.1669 49.0268V49.0268Z" stroke="#90C336" stroke-width="2" stroke-linecap="round" stroke-linejoin="round"/>
<path d="M7.30651 23.5153C8.41005 23.561 9.45334 24.0356 10.2182 24.8398C10.983 25.644 11.41 26.7155 11.41 27.8301C11.41 28.9448 10.983 30.0163 10.2182 30.8205C9.45334 31.6247 8.41005 32.0992 7.30651 32.1449C6.73032 32.1688 6.15529 32.0748 5.61598 31.8688C5.07667 31.6627 4.58419 31.3487 4.16815 30.9457C3.7521 30.5427 3.42107 30.0589 3.19494 29.5235C2.9688 28.9881 2.85223 28.4121 2.85223 27.8301C2.85223 27.2481 2.9688 26.6721 3.19494 26.1367C3.42107 25.6014 3.7521 25.1176 4.16815 24.7146C4.58419 24.3116 5.07667 23.9976 5.61598 23.7915C6.15529 23.5854 6.73032 23.4915 7.30651 23.5153ZM13.3401 25.504C12.9766 24.5514 12.3969 23.698 11.6476 23.0123C10.8983 22.3267 10.0001 21.8278 9.02526 21.5557L27.2483 3.19336L31.3474 7.33034L13.3401 25.504ZM31.3187 47.6695L27.2196 51.8064L9.55023 33.9376C10.4933 33.5843 11.3419 33.014 12.0285 32.2719C12.715 31.5299 13.2208 30.6365 13.5055 29.6627L31.3187 47.6695Z" fill="#90C336"/>
</g>
<path d="M47.27 32.18C46.2 32.18 45.23 31.95 44.36 31.49C43.5 31.02 42.82 30.375 42.32 29.555C41.83 28.725 41.585 27.79 41.585 26.75C41.585 25.71 41.83 24.78 42.32 23.96C42.82 23.13 43.5 22.485 44.36 22.025C45.23 21.555 46.205 21.32 47.285 21.32C48.195 21.32 49.015 21.48 49.745 21.8C50.485 22.12 51.105 22.58 51.605 23.18L50.045 24.62C49.335 23.8 48.455 23.39 47.405 23.39C46.755 23.39 46.175 23.535 45.665 23.825C45.155 24.105 44.755 24.5 44.465 25.01C44.185 25.52 44.045 26.1 44.045 26.75C44.045 27.4 44.185 27.98 44.465 28.49C44.755 29 45.155 29.4 45.665 29.69C46.175 29.97 46.755 30.11 47.405 30.11C48.455 30.11 49.335 29.695 50.045 28.865L51.605 30.305C51.105 30.915 50.485 31.38 49.745 31.7C49.005 32.02 48.18 32.18 47.27 32.18ZM52.5759 26.84H56.8209V28.715H52.5759V26.84ZM68.457 21.5V32H66.042V23.48H61.302V32H58.887V21.5H68.457ZM75.6049 21.5C76.5349 21.5 77.3399 21.655 78.0199 21.965C78.7099 22.275 79.2399 22.715 79.6099 23.285C79.9799 23.855 80.1649 24.53 80.1649 25.31C80.1649 26.08 79.9799 26.755 79.6099 27.335C79.2399 27.905 78.7099 28.345 78.0199 28.655C77.3399 28.955 76.5349 29.105 75.6049 29.105H73.4899V32H71.0599V21.5H75.6049ZM75.4699 27.125C76.1999 27.125 76.7549 26.97 77.1349 26.66C77.5149 26.34 77.7049 25.89 77.7049 25.31C77.7049 24.72 77.5149 24.27 77.1349 23.96C76.7549 23.64 76.1999 23.48 75.4699 23.48H73.4899V27.125H75.4699ZM86.9244 32.18C85.8344 32.18 84.8494 31.945 83.9694 31.475C83.0994 31.005 82.4144 30.36 81.9144 29.54C81.4244 28.71 81.1794 27.78 81.1794 26.75C81.1794 25.72 81.4244 24.795 81.9144 23.975C82.4144 23.145 83.0994 22.495 83.9694 22.025C84.8494 21.555 85.8344 21.32 86.9244 21.32C88.0144 21.32 88.9944 21.555 89.8644 22.025C90.7344 22.495 91.4194 23.145 91.9194 23.975C92.4194 24.795 92.6694 25.72 92.6694 26.75C92.6694 27.78 92.4194 28.71 91.9194 29.54C91.4194 30.36 90.7344 31.005 89.8644 31.475C88.9944 31.945 88.0144 32.18 86.9244 32.18ZM86.9244 30.11C87.5444 30.11 88.1044 29.97 88.6044 29.69C89.1044 29.4 89.4944 29 89.7744 28.49C90.0644 27.98 90.2094 27.4 90.2094 26.75C90.2094 26.1 90.0644 25.52 89.7744 25.01C89.4944 24.5 89.1044 24.105 88.6044 23.825C88.1044 23.535 87.5444 23.39 86.9244 23.39C86.3044 23.39 85.7444 23.535 85.2444 23.825C84.7444 24.105 84.3494 24.5 84.0594 25.01C83.7794 25.52 83.6394 26.1 83.6394 26.75C83.6394 27.4 83.7794 27.98 84.0594 28.49C84.3494 29 84.7444 29.4 85.2444 29.69C85.7444 29.97 86.3044 30.11 86.9244 30.11ZM105.078 30.02V34.175H102.828V32H95.4184V34.175H93.1684L93.1834 30.02H93.6034C94.2334 30 94.6784 29.54 94.9384 28.64C95.1984 27.74 95.3584 26.455 95.4184 24.785L95.5384 21.5H103.608V30.02H105.078ZM97.5634 25.01C97.5134 26.26 97.4084 27.31 97.2484 28.16C97.0884 29 96.8434 29.62 96.5134 30.02H101.208V23.48H97.6084L97.5634 25.01ZM116.239 27.77H114.709V32H112.324V27.77H110.764L108.409 32H105.604L108.754 26.51L105.799 21.5H108.364L110.719 25.745H112.324V21.5H114.709V25.745H116.269L118.639 21.5H121.204L118.264 26.51L121.399 32H118.594L116.239 27.77ZM130.694 30.05V32H122.564V21.5H130.499V23.45H124.979V25.73H129.854V27.62H124.979V30.05H130.694ZM136.722 27.77H135.042V32H132.627V21.5H135.042V25.745H136.782L139.542 21.5H142.107L138.672 26.57L142.212 32H139.452L136.722 27.77ZM151.258 23.48H147.898V32H145.498V23.48H142.153V21.5H151.258V23.48Z" fill="#90C336"/>
<defs>
<clipPath id="clip0">
<rect width="34.375" height="55" fill="white"/>
</clipPath>
</defs>
</svg>
