<svg xmlns="http://www.w3.org/2000/svg" xmlns:xlink="http://www.w3.org/1999/xlink" viewBox="0 0 47.8 75.78"><defs><style>.cls-1,.cls-4{fill:none;}.cls-2{fill:#fff;}.cls-3{clip-path:url(#clip-path);}.cls-4{stroke:#90c336;stroke-linecap:round;stroke-linejoin:round;stroke-width:2px;}.cls-5{fill:#90c336;}</style><clipPath id="clip-path"><path class="cls-1" d="M.34,75.71V.07H47.66V75.71ZM46.12,64.28,19.74,37.89,46.12,11.5a2.3,2.3,0,0,0,0-3.27h0L39.57,1.68a2.3,2.3,0,0,0-3.27,0L8.49,29.49a9,9,0,0,0,1,17.81L36.3,74.1a2.3,2.3,0,0,0,3.27,0l6.55-6.55A2.3,2.3,0,0,0,46.12,64.28Z"/></clipPath></defs><title>logo</title><g id="Слой_2" data-name="Слой 2"><g id="Слой_1-2" data-name="Слой 1"><path class="cls-2" d="M46.12,67.55,39.57,74.1a2.3,2.3,0,0,1-3.27,0h0L9.5,47.3a9,9,0,0,1-1-17.81L36.3,1.68a2.3,2.3,0,0,1,3.27,0l6.55,6.55a2.3,2.3,0,0,1,0,3.27L19.74,37.89,46.12,64.28a2.3,2.3,0,0,1,0,3.27Z"/><g class="cls-3"><path class="cls-4" d="M46.12,67.55,39.57,74.1a2.3,2.3,0,0,1-3.27,0h0L9.5,47.3a9,9,0,0,1-1-17.81L36.3,1.68a2.3,2.3,0,0,1,3.27,0l6.55,6.55a2.3,2.3,0,0,1,0,3.27L19.74,37.89h0L46.12,64.28a2.3,2.3,0,0,1,0,3.27Z"/></g><path class="cls-5" d="M10.16,32.4a5.95,5.95,0,0,1,0,11.89h0a5.95,5.95,0,1,1,0-11.89Zm8.39,2.74a9,9,0,0,0-6-5.44L37.89,4.4l5.7,5.7Zm25,30.54-5.7,5.7L13.28,46.76a9,9,0,0,0,5.5-5.89Z"/></g></g></svg>