<svg width="121" height="32" viewBox="0 0 121 32" fill="none" xmlns="http://www.w3.org/2000/svg">
<g clip-path="url(#clip0)">
<path d="M19.2971 28.5248L16.5565 31.2907C16.467 31.382 16.3605 31.4544 16.2431 31.5039C16.1256 31.5534 15.9997 31.5788 15.8724 31.5788C15.7452 31.5788 15.6192 31.5534 15.5018 31.5039C15.3843 31.4544 15.2778 31.382 15.1883 31.2907L3.97492 19.9737C3.06629 19.9019 2.21429 19.4999 1.57697 18.8424C0.939648 18.1848 0.560255 17.3163 0.50916 16.3979C0.458066 15.4795 0.738739 14.5736 1.29912 13.8481C1.8595 13.1227 2.66155 12.627 3.55651 12.453L15.1883 0.709528C15.2778 0.618241 15.3843 0.545771 15.5018 0.496312C15.6192 0.446853 15.7452 0.421387 15.8724 0.421387C15.9997 0.421387 16.1256 0.446853 16.2431 0.496312C16.3605 0.545771 16.467 0.618241 16.5565 0.709528L19.2971 3.47543C19.3876 3.56575 19.4594 3.67327 19.5084 3.79178C19.5574 3.91029 19.5826 4.03743 19.5826 4.16585C19.5826 4.29427 19.5574 4.42141 19.5084 4.53992C19.4594 4.65843 19.3876 4.76595 19.2971 4.85627L8.25944 16.0001L19.2971 27.1439C19.3876 27.2343 19.4594 27.3418 19.5084 27.4603C19.5574 27.5788 19.5826 27.7059 19.5826 27.8344C19.5826 27.9628 19.5574 28.0899 19.5084 28.2084C19.4594 28.3269 19.3876 28.4345 19.2971 28.5248Z" fill="white"/>
<path d="M19.2971 28.5248L16.5565 31.2907C16.467 31.382 16.3605 31.4544 16.2431 31.5039C16.1256 31.5534 15.9997 31.5788 15.8724 31.5788C15.7452 31.5788 15.6192 31.5534 15.5018 31.5039C15.3843 31.4544 15.2778 31.382 15.1883 31.2907V31.2907L3.97492 19.9737C3.06629 19.9019 2.21429 19.4999 1.57697 18.8424C0.939648 18.1848 0.560255 17.3163 0.50916 16.3979C0.458066 15.4795 0.738739 14.5736 1.29912 13.8481C1.8595 13.1227 2.66155 12.627 3.55651 12.453L15.1883 0.709528C15.2778 0.618241 15.3843 0.545771 15.5018 0.496312C15.6192 0.446853 15.7452 0.421387 15.8724 0.421387C15.9997 0.421387 16.1256 0.446853 16.2431 0.496312C16.3605 0.545771 16.467 0.618241 16.5565 0.709528L19.2971 3.47543C19.3876 3.56575 19.4594 3.67327 19.5084 3.79178C19.5574 3.91029 19.5826 4.03743 19.5826 4.16585C19.5826 4.29427 19.5574 4.42141 19.5084 4.53992C19.4594 4.65843 19.3876 4.76595 19.2971 4.85627L8.25944 16.0001L19.2971 27.1439C19.3876 27.2343 19.4594 27.3418 19.5084 27.4603C19.5574 27.5788 19.5826 27.7059 19.5826 27.8344C19.5826 27.9628 19.5574 28.0899 19.5084 28.2084C19.4594 28.3269 19.3876 28.4345 19.2971 28.5248V28.5248Z" stroke="#90C336" stroke-width="2" stroke-linecap="round" stroke-linejoin="round"/>
<path d="M4.25106 13.6821C4.89312 13.7087 5.50013 13.9848 5.94511 14.4527C6.39009 14.9206 6.63856 15.544 6.63856 16.1925C6.63856 16.8411 6.39009 17.4645 5.94511 17.9324C5.50013 18.4003 4.89312 18.6764 4.25106 18.7029C3.91582 18.7168 3.58126 18.6622 3.26748 18.5423C2.9537 18.4224 2.66717 18.2397 2.42511 18.0052C2.18305 17.7707 1.99044 17.4893 1.85888 17.1778C1.72731 16.8663 1.65948 16.5311 1.65948 16.1925C1.65948 15.8539 1.72731 15.5188 1.85888 15.2073C1.99044 14.8958 2.18305 14.6143 2.42511 14.3798C2.66717 14.1454 2.9537 13.9627 3.26748 13.8428C3.58126 13.7229 3.91582 13.6682 4.25106 13.6821ZM7.76152 14.8391C7.55003 14.2849 7.21277 13.7884 6.77679 13.3894C6.34082 12.9905 5.81827 12.7003 5.25106 12.542L15.8536 1.8584L18.2385 4.26537L7.76152 14.8391ZM18.2218 27.7354L15.8368 30.1424L5.5565 19.746C6.10522 19.5404 6.59891 19.2086 6.99837 18.7768C7.39784 18.3451 7.69209 17.8253 7.85776 17.2588L18.2218 27.7354Z" fill="#90C336"/>
</g>
<path d="M30.434 21.156C29.5067 21.156 28.666 20.9567 27.912 20.558C27.1667 20.1507 26.5773 19.5917 26.144 18.881C25.7193 18.1617 25.507 17.3513 25.507 16.45C25.507 15.5487 25.7193 14.7427 26.144 14.032C26.5773 13.3127 27.1667 12.7537 27.912 12.355C28.666 11.9477 29.511 11.744 30.447 11.744C31.2357 11.744 31.9463 11.8827 32.579 12.16C33.2203 12.4373 33.7577 12.836 34.191 13.356L32.839 14.604C32.2237 13.8933 31.461 13.538 30.551 13.538C29.9877 13.538 29.485 13.6637 29.043 13.915C28.601 14.1577 28.2543 14.5 28.003 14.942C27.7603 15.384 27.639 15.8867 27.639 16.45C27.639 17.0133 27.7603 17.516 28.003 17.958C28.2543 18.4 28.601 18.7467 29.043 18.998C29.485 19.2407 29.9877 19.362 30.551 19.362C31.461 19.362 32.2237 19.0023 32.839 18.283L34.191 19.531C33.7577 20.0597 33.2203 20.4627 32.579 20.74C31.9377 21.0173 31.2227 21.156 30.434 21.156ZM35.0324 16.528H38.7114V18.153H35.0324V16.528ZM48.7961 11.9V21H46.7031V13.616H42.5951V21H40.5021V11.9H48.7961ZM54.9909 11.9C55.7969 11.9 56.4946 12.0343 57.0839 12.303C57.6819 12.5717 58.1412 12.953 58.4619 13.447C58.7826 13.941 58.9429 14.526 58.9429 15.202C58.9429 15.8693 58.7826 16.4543 58.4619 16.957C58.1412 17.451 57.6819 17.8323 57.0839 18.101C56.4946 18.361 55.7969 18.491 54.9909 18.491H53.1579V21H51.0519V11.9H54.9909ZM54.8739 16.775C55.5066 16.775 55.9876 16.6407 56.3169 16.372C56.6462 16.0947 56.8109 15.7047 56.8109 15.202C56.8109 14.6907 56.6462 14.3007 56.3169 14.032C55.9876 13.7547 55.5066 13.616 54.8739 13.616H53.1579V16.775H54.8739ZM64.8011 21.156C63.8565 21.156 63.0028 20.9523 62.2401 20.545C61.4861 20.1377 60.8925 19.5787 60.4591 18.868C60.0345 18.1487 59.8221 17.3427 59.8221 16.45C59.8221 15.5573 60.0345 14.7557 60.4591 14.045C60.8925 13.3257 61.4861 12.7623 62.2401 12.355C63.0028 11.9477 63.8565 11.744 64.8011 11.744C65.7458 11.744 66.5951 11.9477 67.3491 12.355C68.1031 12.7623 68.6968 13.3257 69.1301 14.045C69.5635 14.7557 69.7801 15.5573 69.7801 16.45C69.7801 17.3427 69.5635 18.1487 69.1301 18.868C68.6968 19.5787 68.1031 20.1377 67.3491 20.545C66.5951 20.9523 65.7458 21.156 64.8011 21.156ZM64.8011 19.362C65.3385 19.362 65.8238 19.2407 66.2571 18.998C66.6905 18.7467 67.0285 18.4 67.2711 17.958C67.5225 17.516 67.6481 17.0133 67.6481 16.45C67.6481 15.8867 67.5225 15.384 67.2711 14.942C67.0285 14.5 66.6905 14.1577 66.2571 13.915C65.8238 13.6637 65.3385 13.538 64.8011 13.538C64.2638 13.538 63.7785 13.6637 63.3451 13.915C62.9118 14.1577 62.5695 14.5 62.3181 14.942C62.0755 15.384 61.9541 15.8867 61.9541 16.45C61.9541 17.0133 62.0755 17.516 62.3181 17.958C62.5695 18.4 62.9118 18.7467 63.3451 18.998C63.7785 19.2407 64.2638 19.362 64.8011 19.362ZM80.5346 19.284V22.885H78.5846V21H72.1626V22.885H70.2126L70.2256 19.284H70.5896C71.1356 19.2667 71.5212 18.868 71.7466 18.088C71.9719 17.308 72.1106 16.1943 72.1626 14.747L72.2666 11.9H79.2606V19.284H80.5346ZM74.0216 14.942C73.9782 16.0253 73.8872 16.9353 73.7486 17.672C73.6099 18.4 73.3976 18.9373 73.1116 19.284H77.1806V13.616H74.0606L74.0216 14.942ZM90.2073 17.334H88.8813V21H86.8143V17.334H85.4623L83.4213 21H80.9903L83.7203 16.242L81.1593 11.9H83.3823L85.4233 15.579H86.8143V11.9H88.8813V15.579H90.2333L92.2873 11.9H94.5103L91.9623 16.242L94.6793 21H92.2483L90.2073 17.334ZM102.735 19.31V21H95.6886V11.9H102.566V13.59H97.7816V15.566H102.007V17.204H97.7816V19.31H102.735ZM107.959 17.334H106.503V21H104.41V11.9H106.503V15.579H108.011L110.403 11.9H112.626L109.649 16.294L112.717 21H110.325L107.959 17.334ZM120.557 13.616H117.645V21H115.565V13.616H112.666V11.9H120.557V13.616Z" fill="#90C336"/>
<defs>
<clipPath id="clip0">
<rect width="20" height="32" fill="white"/>
</clipPath>
</defs>
</svg>
