<svg width="18" height="18" viewBox="0 0 18 18" fill="none" xmlns="http://www.w3.org/2000/svg">
<path d="M11.6016 5.27344C10.9231 5.27344 10.3711 4.72145 10.3711 4.04297V0H4.07812C3.01194 0 2.14453 0.86741 2.14453 1.93359V16.0664C2.14453 17.1326 3.01194 18 4.07812 18H13.9219C14.9881 18 15.8555 17.1326 15.8555 16.0664V5.27344H11.6016ZM5.02734 12.6562H7.58391C7.87514 12.6562 8.11125 12.8924 8.11125 13.1836C8.11125 13.4748 7.87514 13.7109 7.58391 13.7109H5.02734C4.73611 13.7109 4.5 13.4748 4.5 13.1836C4.5 12.8924 4.73611 12.6562 5.02734 12.6562ZM4.5 10.3711C4.5 10.0799 4.73611 9.84375 5.02734 9.84375H12.7617C13.053 9.84375 13.2891 10.0799 13.2891 10.3711C13.2891 10.6623 13.053 10.8984 12.7617 10.8984H5.02734C4.73611 10.8984 4.5 10.6623 4.5 10.3711ZM12.7617 7.03125C13.053 7.03125 13.2891 7.26736 13.2891 7.55859C13.2891 7.84983 13.053 8.08594 12.7617 8.08594H5.02734C4.73611 8.08594 4.5 7.84983 4.5 7.55859C4.5 7.26736 4.73611 7.03125 5.02734 7.03125H12.7617Z" fill="#52A7D8"/>
<path d="M11.4258 4.04301C11.4258 4.13994 11.5046 4.21879 11.6016 4.21879H15.6204C15.5239 4.04069 15.3998 3.87711 15.2507 3.73603L11.8609 0.529004C11.7293 0.404551 11.5828 0.300734 11.4258 0.21875V4.04301H11.4258Z" fill="#52A7D8"/>
</svg>
