<svg width="18" height="18" viewBox="0 0 18 18" fill="none" xmlns="http://www.w3.org/2000/svg">
<g clip-path="url(#clip0_108:1304)">
<path d="M8.87173 8.67068C10.0629 8.67068 11.0944 8.24345 11.9372 7.40053C12.78 6.55774 13.2072 5.52653 13.2072 4.3352C13.2072 3.14429 12.78 2.11295 11.9371 1.26988C11.0941 0.427231 10.0628 0 8.87173 0C7.6804 0 6.6492 0.427231 5.80641 1.27002C4.96362 2.11281 4.53625 3.14415 4.53625 4.3352C4.53625 5.52653 4.96362 6.55788 5.80655 7.40066C6.64948 8.24332 7.68082 8.67068 8.87173 8.67068Z" fill="#52A7D8"/>
<path d="M16.4577 13.8412C16.4333 13.4905 16.3842 13.1079 16.3118 12.7039C16.2388 12.2968 16.1447 11.912 16.0321 11.5603C15.9158 11.1968 15.7576 10.8378 15.562 10.4938C15.359 10.1368 15.1206 9.82587 14.8531 9.57002C14.5734 9.30237 14.2309 9.08717 13.8348 8.93021C13.4401 8.77406 13.0027 8.69496 12.5349 8.69496C12.3511 8.69496 12.1734 8.77036 11.8302 8.99379C11.619 9.13153 11.3719 9.29083 11.0962 9.46703C10.8604 9.61726 10.541 9.75803 10.1464 9.88547C9.76149 10.01 9.37065 10.0732 8.98489 10.0732C8.59914 10.0732 8.20844 10.01 7.82309 9.88547C7.42896 9.75816 7.10953 9.6174 6.87401 9.46716C6.60086 9.29262 6.35367 9.13332 6.1393 8.99365C5.79652 8.77022 5.61868 8.69482 5.43494 8.69482C4.96692 8.69482 4.52966 8.77406 4.13512 8.93034C3.73933 9.08704 3.3967 9.30223 3.11668 9.57016C2.8493 9.82614 2.61076 10.1369 2.40807 10.4938C2.21265 10.8378 2.05444 11.1967 1.93799 11.5605C1.82552 11.9122 1.73145 12.2968 1.65839 12.7039C1.58601 13.1073 1.53685 13.4901 1.51254 13.8416C1.48865 14.1861 1.47656 14.5435 1.47656 14.9046C1.47656 15.8442 1.77525 16.6048 2.36426 17.1658C2.94598 17.7194 3.71571 18.0002 4.65175 18.0002H13.3189C14.2549 18.0002 15.0244 17.7195 15.6062 17.1658C16.1954 16.6053 16.494 15.8445 16.494 14.9044C16.4939 14.5417 16.4817 14.184 16.4577 13.8412Z" fill="#52A7D8"/>
</g>
<defs>
<clipPath id="clip0_108:1304">
<rect width="18" height="18.0001" fill="white"/>
</clipPath>
</defs>
</svg>
