<svg width="20" height="20" viewBox="0 0 20 20" fill="none" xmlns="http://www.w3.org/2000/svg">
<g clip-path="url(#clip0)">
<path d="M19.7094 5.97103C19.4057 5.76398 18.992 5.84222 18.7849 6.14578L17.4279 8.13545C17.0754 6.49299 16.2588 4.98378 15.0438 3.76881C13.3789 2.10391 11.1653 1.18701 8.81068 1.18701C6.45616 1.18701 4.2425 2.10391 2.5776 3.76881C-0.859362 7.20577 -0.859362 12.7981 2.5776 16.235C4.29608 17.9535 6.55338 18.8127 8.81068 18.8127C11.068 18.8127 13.3253 17.9535 15.0438 16.235C15.3036 15.9752 15.3036 15.5539 15.0438 15.294C14.7839 15.0342 14.3627 15.0342 14.1029 15.294C11.1847 18.2121 6.43673 18.2121 3.51863 15.294C0.60053 12.3759 0.60053 7.62776 3.51863 4.70967C4.93222 3.29617 6.81161 2.51765 8.81077 2.51765C10.8099 2.51765 12.6894 3.29617 14.1029 4.70975C15.194 5.8007 15.905 7.17153 16.1734 8.65972L13.8117 7.04894C13.5081 6.84189 13.0942 6.92013 12.8872 7.22369C12.6801 7.52726 12.7583 7.94118 13.0619 8.14822L16.5849 10.5511C16.5851 10.5512 16.5853 10.5514 16.5855 10.5515C16.6412 10.5895 16.7006 10.6175 16.7617 10.6365C16.7636 10.6371 16.7654 10.6381 16.7672 10.6387C16.7776 10.6418 16.7882 10.6431 16.7986 10.6458C16.8518 10.6591 16.9058 10.6672 16.9597 10.6672C17.1723 10.6672 17.3812 10.5656 17.51 10.3768L19.8842 6.89565C20.0912 6.59199 20.013 6.17807 19.7094 5.97103Z" fill="#52A7D8"/>
</g>
<defs>
<clipPath id="clip0">
<rect width="20" height="20" fill="white"/>
</clipPath>
</defs>
</svg>
