<?xml version="1.0" encoding="utf-8"?><svg xmlns="http://www.w3.org/2000/svg" xmlns:xlink="http://www.w3.org/1999/xlink"><symbol viewBox="0 0 24 24" id="arrow-left" xmlns="http://www.w3.org/2000/svg"><g clip-path="url(#aa)"><path d="M.275 11.336l4.9-4.876a.938.938 0 011.322 1.33l-3.289 3.272h19.854a.937.937 0 110 1.876H3.209l3.29 3.272a.937.937 0 11-1.324 1.33L.276 12.665l-.001-.001a.938.938 0 010-1.328z"/></g><defs><clipPath id="aa"><path transform="matrix(-1 0 0 1 24 0)" d="M0 0h24v24H0z"/></clipPath></defs></symbol><symbol viewBox="0 0 24 24" id="arrow-right" xmlns="http://www.w3.org/2000/svg"><g clip-path="url(#ba)"><path d="M23.725 11.336l-4.9-4.876a.938.938 0 00-1.322 1.33l3.289 3.272H.937a.937.937 0 100 1.876h19.855l-3.29 3.272a.937.937 0 101.324 1.33l4.898-4.875.001-.001a.938.938 0 000-1.328z"/></g><defs><clipPath id="ba"><path d="M0 0h24v24H0z"/></clipPath></defs></symbol><symbol viewBox="0 0 22 24" id="basket" xmlns="http://www.w3.org/2000/svg"><g clip-path="url(#ca)"><path d="M10.363 18.443a2.046 2.046 0 00-2.045 2.042 2.046 2.046 0 004.09 0 2.046 2.046 0 00-2.045-2.042zm6.134 0a2.046 2.046 0 00-2.045 2.042 2.046 2.046 0 004.089 0 2.046 2.046 0 00-2.044-2.042zm3.978-8.199L7.413 6.891a.614.614 0 00-.75.73L8.67 16.4h-.786L5.482 5.895a.613.613 0 00-.474-.464l-4.27-.882A.614.614 0 00.489 5.75l3.885.802L6.797 17.15a.613.613 0 00.598.477h12.07a.615.615 0 00.607-.53l.858-6.175a.613.613 0 00-.455-.678zm-8.14 3.91a.613.613 0 01-1.227 0v-2.696a.613.613 0 011.227 0v2.696zm2.625 0a.613.613 0 01-1.227 0v-1.88a.613.613 0 011.227 0v1.88zm2.625 0a.613.613 0 01-1.227 0v-1.226a.613.613 0 011.227 0v1.226z"/></g><path fill-rule="evenodd" clip-rule="evenodd" d="M16.268 4.568a2.996 2.996 0 00-1.693-.523c-.627 0-1.21.193-1.693.523-.28-.843-.492-1.752-.492-2.383C12.39.98 13.37 0 14.575 0s2.185.98 2.185 2.185c0 .631-.212 1.54-.492 2.383zm-4.722 2.274l.024.006v-.011l-.024.005zm4.972 1.217c-1.333-.33-2.766-.681-4.129-1.013a2.185 2.185 0 114.129 1.013zm4.436 1.103c-.866-.217-2.155-.538-3.618-.9a2.995 2.995 0 00.243-1.425c.87.18 1.762.45 2.308.765.596.344.969.928 1.067 1.56zM9.869 6.439c-.36-.086-.706-.167-1.03-.243a2.19 2.19 0 01-.376-2.667 2.188 2.188 0 013.147-.7c.098.738.338 1.599.61 2.353a3.01 3.01 0 00-.449.774c-.628.113-1.305.278-1.902.483zm10.124.075a3.43 3.43 0 01-.217.114c-.696-.295-1.587-.526-2.397-.672a3.01 3.01 0 00-.449-.774c.262-.727.494-1.553.599-2.273.095-.067.189-.128.278-.18a2.188 2.188 0 012.986.8 2.188 2.188 0 01-.8 2.985z"/><defs><clipPath id="ca"><path transform="translate(0 3.064)" d="M0 0h20.936v20.936H0z"/></clipPath></defs></symbol><symbol viewBox="0 0 18 13" id="check" xmlns="http://www.w3.org/2000/svg"><path d="M16.898 1.558l-9.6 9.602-6.124-6.124"/></symbol><symbol viewBox="0 0 20 20" id="reload" xmlns="http://www.w3.org/2000/svg"><g clip-path="url(#ea)"><path d="M19.71 5.971a.665.665 0 00-.925.175l-1.357 1.99a8.758 8.758 0 00-2.384-4.367A8.757 8.757 0 008.81 1.187a8.757 8.757 0 00-6.233 2.582c-3.437 3.437-3.437 9.03 0 12.466a8.787 8.787 0 006.233 2.578c2.257 0 4.514-.86 6.233-2.578a.665.665 0 00-.941-.941c-2.918 2.918-7.666 2.918-10.584 0C.6 12.376.6 7.628 3.519 4.71A7.435 7.435 0 018.81 2.518c1.999 0 3.878.778 5.292 2.192a7.432 7.432 0 012.07 3.95l-2.361-1.611a.665.665 0 10-.75 1.1l3.523 2.402a.66.66 0 00.177.085l.005.003.032.007a.665.665 0 00.711-.269l2.374-3.481a.665.665 0 00-.175-.925z"/></g><defs><clipPath id="ea"><path d="M0 0h20v20H0z"/></clipPath></defs></symbol><symbol viewBox="0 0 12 12" id="star" xmlns="http://www.w3.org/2000/svg"><g clip-path="url(#fa)"><path d="M11.969 4.603a.637.637 0 00-.549-.438L7.956 3.85 6.587.645a.638.638 0 00-1.173 0L4.044 3.85.58 4.165A.639.639 0 00.217 5.28l2.619 2.296-.772 3.4a.638.638 0 00.949.69L6 9.881l2.987 1.786a.637.637 0 00.95-.69l-.773-3.4 2.619-2.296a.639.639 0 00.186-.678z"/></g><defs><clipPath id="fa"><path d="M0 0h12v12H0z"/></clipPath></defs></symbol><symbol viewBox="0 0 30 30" id="zoom-pl" xmlns="http://www.w3.org/2000/svg"><path d="M16.98 11.73h-2.888V8.842c0-.662-.533-1.196-1.196-1.196-.662 0-1.195.534-1.195 1.196v2.888H8.812c-.662 0-1.195.534-1.195 1.196 0 .662.533 1.195 1.196 1.195H11.7v2.889c0 .662.533 1.195 1.195 1.195.663 0 1.196-.533 1.196-1.195v-2.89h2.888c.663 0 1.196-.533 1.196-1.195s-.54-1.196-1.195-1.196z"/><path d="M12.902 22.775c-5.443 0-9.855-4.406-9.855-9.85 0-5.443 4.412-9.849 9.855-9.849 5.444 0 9.85 4.412 9.85 9.85 0 5.437-4.412 9.85-9.85 9.85zm16.102 4.57l-6.639-6.638a12.213 12.213 0 002.79-7.781C25.154 6.158 19.67.668 12.895.668 6.123.668.646 6.158.646 12.926c0 6.767 5.484 12.258 12.257 12.258a12.19 12.19 0 007.776-2.784l6.638 6.64c.305.31 1.237.462 1.694 0a1.2 1.2 0 00-.006-1.694z"/></symbol></svg>