<svg width="24" height="24" viewBox="0 0 24 24" fill="none" xmlns="http://www.w3.org/2000/svg">
<circle cx="12" cy="12" r="12" fill="#52A7D8"/>
<g clip-path="url(#clip0_225:1340)">
<path d="M16.7278 14.339L15.3323 12.9435C14.8339 12.4451 13.9866 12.6444 13.7872 13.2923C13.6377 13.7409 13.1393 13.9901 12.6908 13.8904C11.6939 13.6412 10.3483 12.3454 10.0991 11.2987C9.94954 10.8501 10.2486 10.3517 10.6971 10.2022C11.3451 10.0029 11.5444 9.1556 11.046 8.65719L9.6505 7.26166C9.25177 6.91278 8.65369 6.91278 8.30481 7.26166L7.35784 8.20863C6.41087 9.20544 7.45752 11.847 9.80002 14.1895C12.1425 16.532 14.7841 17.6285 15.7809 16.6316L16.7278 15.6847C17.0767 15.286 17.0767 14.6879 16.7278 14.339Z" fill="#2A3A44"/>
</g>
<defs>
<clipPath id="clip0_225:1340">
<rect width="10" height="10" fill="white" transform="translate(7 7)"/>
</clipPath>
</defs>
</svg>
