<svg width="120" height="120" viewBox="0 0 120 120" fill="none" xmlns="http://www.w3.org/2000/svg">
<circle cx="60" cy="60" r="60" fill="#52A7D8"/>
<path d="M59.0226 58.2742C63.4565 58.2742 67.2953 56.6839 70.4329 53.5464C73.5694 50.4093 75.1602 46.571 75.1602 42.1366C75.1602 37.7037 73.5699 33.8648 70.4324 30.7268C67.2948 27.5902 63.4559 26 59.0226 26C54.5882 26 50.7498 27.5902 47.6128 30.7273C44.4757 33.8643 42.8849 37.7032 42.8849 42.1366C42.8849 46.571 44.4757 50.4098 47.6128 53.5469C50.7508 56.6834 54.5897 58.2742 59.0226 58.2742ZM50.3894 33.5034C52.7965 31.0963 55.6202 29.9263 59.0226 29.9263C62.4244 29.9263 65.2486 31.0963 67.6562 33.5034C70.0633 35.911 71.2339 38.7353 71.2339 42.1366C71.2339 45.5389 70.0633 48.3626 67.6562 50.7702C65.2486 53.1778 62.4244 54.3479 59.0226 54.3479C55.6212 54.3479 52.7975 53.1773 50.3894 50.7702C47.9818 48.3631 46.8112 45.5389 46.8112 42.1366C46.8112 38.7353 47.9818 35.911 50.3894 33.5034Z" fill="white"/>
<path d="M87.2591 77.5197C87.1686 76.2142 86.9856 74.79 86.7162 73.2862C86.4443 71.7711 86.0941 70.3388 85.6749 69.0297C85.2415 67.6766 84.6531 66.3404 83.9247 65.06C83.1697 63.7309 82.2823 62.5736 81.2866 61.6213C80.2453 60.6251 78.9704 59.8241 77.4962 59.2398C76.0271 58.6586 74.3991 58.3642 72.6575 58.3642C71.9736 58.3642 71.3121 58.6448 70.0347 59.4765C69.2485 59.9892 68.3289 60.5821 67.3025 61.2379C66.4248 61.7972 65.2358 62.3211 63.7672 62.7955C62.3344 63.2591 60.8796 63.4942 59.4433 63.4942C58.0079 63.4942 56.5531 63.2591 55.1193 62.7955C53.6522 62.3216 52.4627 61.7977 51.5866 61.2385C50.5699 60.5888 49.6498 59.9958 48.8518 59.476C47.5754 58.6443 46.914 58.3636 46.23 58.3636C44.488 58.3636 42.8604 58.6586 41.3918 59.2403C39.9186 59.8235 38.6433 60.6245 37.601 61.6218C36.6052 62.5747 35.7178 63.7314 34.9634 65.06C34.236 66.3404 33.6471 67.6761 33.2136 69.0302C32.795 70.3393 32.4448 71.7711 32.1729 73.2862C31.903 74.788 31.7205 76.2126 31.63 77.5212C31.5411 78.8007 31.4961 80.1323 31.4961 81.4777C31.4961 84.9751 32.6079 87.8064 34.8003 89.8946C36.9656 91.9551 39.8302 92.9999 43.3148 92.9999H75.5758C79.0594 92.9999 81.924 91.9551 84.0898 89.8946C86.2827 87.808 87.3945 84.9756 87.3945 81.4772C87.394 80.1272 87.3485 78.7956 87.2591 77.5197ZM81.3827 87.0499C79.9519 88.4117 78.0524 89.0736 75.5753 89.0736H43.3148C40.8372 89.0736 38.9377 88.4117 37.5074 87.0504C36.1043 85.7147 35.4224 83.8914 35.4224 81.4777C35.4224 80.2222 35.4638 78.9826 35.5466 77.7926C35.6274 76.6251 35.7925 75.3426 36.0373 73.9798C36.2791 72.6339 36.5868 71.3708 36.9528 70.2274C37.304 69.1309 37.783 68.0452 38.3769 66.9993C38.9438 66.0025 39.5961 65.1474 40.3158 64.4583C40.989 63.8137 41.8376 63.2862 42.8374 62.8906C43.7621 62.5246 44.8013 62.3242 45.9295 62.294C46.067 62.3671 46.3118 62.5067 46.7085 62.7653C47.5156 63.2913 48.446 63.8914 49.4744 64.5483C50.6338 65.2874 52.1274 65.955 53.9119 66.5311C55.7363 67.121 57.5969 67.4205 59.4438 67.4205C61.2906 67.4205 63.1518 67.121 64.9751 66.5316C66.7612 65.9545 68.2543 65.2874 69.4152 64.5473C70.4677 63.8746 71.3719 63.2918 72.179 62.7653C72.5757 62.5072 72.8206 62.3671 72.9581 62.294C74.0867 62.3242 75.1259 62.5246 76.0512 62.8906C77.0505 63.2862 77.899 63.8142 78.5722 64.4583C79.292 65.1469 79.9442 66.002 80.5111 66.9998C81.1056 68.0452 81.5851 69.1314 81.9357 70.2268C82.3022 71.3719 82.6105 72.6344 82.8518 73.9793C83.0961 75.3447 83.2617 76.6277 83.3425 77.7932V77.7942C83.4258 78.9796 83.4677 80.2187 83.4682 81.4777C83.4677 83.8919 82.7858 85.7147 81.3827 87.0499Z" fill="white"/>
</svg>
