<svg width="16" height="16" viewBox="0 0 16 16" fill="none" xmlns="http://www.w3.org/2000/svg">
<path d="M13.291 2.70914C12.0425 1.44818 10.3845 0.674881 8.61609 0.528717C6.84764 0.382552 5.08518 0.873149 3.6466 1.91202C2.20801 2.95088 1.18802 4.46963 0.770597 6.19431C0.353174 7.91899 0.565803 9.73606 1.37013 11.3178L0.580582 15.151C0.57239 15.1891 0.572158 15.2285 0.579901 15.2668C0.587644 15.305 0.603195 15.3413 0.625582 15.3732C0.658377 15.4217 0.705191 15.4591 0.759771 15.4803C0.81435 15.5015 0.874099 15.5055 0.931037 15.4919L4.68785 14.6014C6.26512 15.3854 8.06937 15.5843 9.77956 15.1629C11.4897 14.7414 12.995 13.7269 14.0273 12.2998C15.0597 10.8727 15.5523 9.12568 15.4175 7.36949C15.2827 5.6133 14.5292 3.96191 13.291 2.70914ZM12.1197 12.0582C11.2558 12.9196 10.1435 13.4883 8.93935 13.684C7.73522 13.8797 6.50003 13.6926 5.40785 13.1491L4.88422 12.8901L2.58104 13.4355L2.58786 13.4069L3.06513 11.0887L2.80876 10.5828C2.25071 9.48679 2.05385 8.24229 2.24638 7.02756C2.43892 5.81284 3.01096 4.69021 3.88058 3.8205C4.97327 2.72815 6.45507 2.11451 8.00013 2.11451C9.54518 2.11451 11.027 2.72815 12.1197 3.8205C12.129 3.83118 12.139 3.8412 12.1497 3.85051C13.2288 4.94567 13.8312 6.42305 13.8256 7.96055C13.82 9.49805 13.2068 10.971 12.1197 12.0582Z" fill="white"/>
<path d="M11.9152 10.3577C11.6329 10.8023 11.187 11.3464 10.6265 11.4814C9.6447 11.7186 8.13788 11.4895 6.26288 9.74135L6.2397 9.7209C4.59106 8.19226 4.16288 6.91998 4.26652 5.91089C4.32379 5.33816 4.80106 4.81998 5.20333 4.4818C5.26693 4.42752 5.34235 4.38887 5.42356 4.36895C5.50476 4.34903 5.5895 4.34838 5.671 4.36707C5.7525 4.38575 5.82849 4.42325 5.89291 4.47656C5.95732 4.52986 6.00837 4.5975 6.04197 4.67407L6.64879 6.03771C6.68822 6.12613 6.70284 6.22361 6.69106 6.31971C6.67929 6.4158 6.64158 6.50688 6.58197 6.58316L6.27515 6.98135C6.20932 7.06356 6.16959 7.1636 6.16109 7.26858C6.15258 7.37357 6.17569 7.4787 6.22743 7.57044C6.39924 7.8718 6.81106 8.31499 7.26788 8.72544C7.78061 9.18908 8.34924 9.61317 8.70924 9.75772C8.80557 9.79707 8.91148 9.80667 9.01332 9.78529C9.11515 9.7639 9.20825 9.7125 9.28061 9.63772L9.63652 9.27908C9.70519 9.21136 9.79059 9.16306 9.88402 9.13911C9.97744 9.11515 10.0755 9.1164 10.1683 9.14272L11.6097 9.55181C11.6892 9.5762 11.7621 9.61845 11.8228 9.67532C11.8834 9.7322 11.9303 9.80219 11.9598 9.87996C11.9893 9.95773 12.0006 10.0412 11.9928 10.124C11.9851 10.2068 11.9585 10.2868 11.9152 10.3577Z" fill="white"/>
</svg>
