<svg width="24" height="24" viewBox="0 0 24 24" fill="none" xmlns="http://www.w3.org/2000/svg">
<path d="M12 24C18.6274 24 24 18.6274 24 12C24 5.37258 18.6274 0 12 0C5.37258 0 0 5.37258 0 12C0 18.6274 5.37258 24 12 24Z" fill="#86B92D"/>
<path d="M17.291 6.70914C16.0425 5.44818 14.3845 4.67488 12.6161 4.52872C10.8476 4.38255 9.08518 4.87315 7.6466 5.91202C6.20801 6.95088 5.18802 8.46963 4.7706 10.1943C4.35317 11.919 4.5658 13.7361 5.37013 15.3178L4.58058 19.151C4.57239 19.1891 4.57216 19.2285 4.5799 19.2668C4.58764 19.305 4.60319 19.3413 4.62558 19.3732C4.65838 19.4217 4.70519 19.4591 4.75977 19.4803C4.81435 19.5015 4.8741 19.5055 4.93104 19.4919L8.68785 18.6014C10.2651 19.3854 12.0694 19.5843 13.7796 19.1629C15.4897 18.7414 16.995 17.7269 18.0273 16.2998C19.0597 14.8727 19.5523 13.1257 19.4175 11.3695C19.2827 9.6133 18.5292 7.96191 17.291 6.70914ZM16.1197 16.0582C15.2558 16.9196 14.1435 17.4883 12.9394 17.684C11.7352 17.8797 10.5 17.6926 9.40785 17.1491L8.88422 16.8901L6.58104 17.4355L6.58786 17.4069L7.06513 15.0887L6.80876 14.5828C6.25071 13.4868 6.05385 12.2423 6.24638 11.0276C6.43892 9.81284 7.01096 8.69021 7.88058 7.8205C8.97327 6.72815 10.4551 6.11451 12.0001 6.11451C13.5452 6.11451 15.027 6.72815 16.1197 7.8205C16.129 7.83118 16.139 7.8412 16.1497 7.85051C17.2288 8.94567 17.8312 10.423 17.8256 11.9606C17.82 13.4981 17.2068 14.971 16.1197 16.0582Z" fill="#2A3A44"/>
<path d="M15.9152 14.3577C15.6329 14.8023 15.187 15.3464 14.6265 15.4814C13.6447 15.7186 12.1379 15.4895 10.2629 13.7414L10.2397 13.7209C8.59106 12.1923 8.16288 10.92 8.26652 9.91089C8.32379 9.33816 8.80106 8.81998 9.20333 8.4818C9.26693 8.42752 9.34235 8.38887 9.42356 8.36895C9.50476 8.34903 9.5895 8.34838 9.671 8.36707C9.7525 8.38575 9.82849 8.42325 9.89291 8.47656C9.95732 8.52986 10.0084 8.5975 10.042 8.67407L10.6488 10.0377C10.6882 10.1261 10.7028 10.2236 10.6911 10.3197C10.6793 10.4158 10.6416 10.5069 10.582 10.5832L10.2752 10.9813C10.2093 11.0636 10.1696 11.1636 10.1611 11.2686C10.1526 11.3736 10.1757 11.4787 10.2274 11.5704C10.3992 11.8718 10.8111 12.315 11.2679 12.7254C11.7806 13.1891 12.3492 13.6132 12.7092 13.7577C12.8056 13.7971 12.9115 13.8067 13.0133 13.7853C13.1152 13.7639 13.2082 13.7125 13.2806 13.6377L13.6365 13.2791C13.7052 13.2114 13.7906 13.1631 13.884 13.1391C13.9774 13.1152 14.0755 13.1164 14.1683 13.1427L15.6097 13.5518C15.6892 13.5762 15.7621 13.6184 15.8228 13.6753C15.8834 13.7322 15.9303 13.8022 15.9598 13.88C15.9893 13.9577 16.0006 14.0412 15.9928 14.124C15.9851 14.2068 15.9585 14.2868 15.9152 14.3577Z" fill="#2A3A44"/>
</svg>
