<svg width="30" height="30" viewBox="0 0 30 30" fill="none" xmlns="http://www.w3.org/2000/svg">
<path d="M16.9805 11.7305H14.0918V8.8418C14.0918 8.17969 13.5586 7.64648 12.8965 7.64648C12.2344 7.64648 11.7012 8.17969 11.7012 8.8418V11.7305H8.8125C8.15039 11.7305 7.61719 12.2637 7.61719 12.9258C7.61719 13.5879 8.15039 14.1211 8.8125 14.1211H11.7012V17.0098C11.7012 17.6719 12.2344 18.2051 12.8965 18.2051C13.5586 18.2051 14.0918 17.6719 14.0918 17.0098V14.1211H16.9805C17.6426 14.1211 18.1758 13.5879 18.1758 12.9258C18.1758 12.2637 17.6367 11.7305 16.9805 11.7305Z" fill="white"/>
<path d="M12.9023 22.7754C7.45898 22.7754 3.04688 18.3691 3.04688 12.9258C3.04688 7.48242 7.45898 3.07617 12.9023 3.07617C18.3457 3.07617 22.752 7.48828 22.752 12.9258C22.752 18.3633 18.3398 22.7754 12.9023 22.7754ZM29.0039 27.3457L22.3652 20.707C24.1055 18.5918 25.1543 15.8789 25.1543 12.9258C25.1543 6.1582 19.6699 0.667969 12.8965 0.667969C6.12305 0.667969 0.644531 6.1582 0.644531 12.9258C0.644531 19.6934 6.12891 25.1836 12.9023 25.1836C15.8555 25.1836 18.5625 24.1406 20.6777 22.4004L27.3164 29.0391C27.6211 29.3496 28.5527 29.502 29.0098 29.0391C29.4727 28.5703 29.4727 27.8145 29.0039 27.3457Z" fill="white"/>
</svg>
